<svg width="148" height="111" viewBox="0 0 148 111" fill="none" xmlns="http://www.w3.org/2000/svg">
<path d="M140.896 10.3638H17.5784C14.7856 10.3638 12.5215 12.6371 12.5215 15.4415V103.741C12.5215 106.545 14.7856 108.818 17.5784 108.818H140.896C143.689 108.818 145.953 106.545 145.953 103.741V15.4415C145.953 12.6371 143.689 10.3638 140.896 10.3638Z" fill="#AFB1B2"/>
<path d="M140.709 110.114H16.4725C14.7384 110.112 13.0759 109.426 11.8497 108.208C10.6235 106.989 9.93375 105.337 9.93164 103.613V15.5688C9.93375 13.8454 10.6235 12.1932 11.8497 10.9746C13.0759 9.75599 14.7384 9.07045 16.4725 9.06836H140.709C142.443 9.07045 144.106 9.75599 145.332 10.9746C146.558 12.1932 147.248 13.8454 147.25 15.5688V103.613C147.248 105.337 146.558 106.989 145.332 108.208C144.106 109.426 142.443 110.112 140.709 110.114ZM16.4725 11.9423C15.5053 11.9435 14.578 12.3259 13.894 13.0056C13.2101 13.6853 12.8254 14.6068 12.8242 15.5681V103.613C12.8254 104.575 13.2101 105.496 13.894 106.176C14.578 106.856 15.5053 107.238 16.4725 107.239H140.709C141.676 107.238 142.604 106.856 143.288 106.176C143.972 105.496 144.356 104.575 144.357 103.613V15.5688C144.356 14.6075 143.972 13.6858 143.288 13.0061C142.604 12.3263 141.676 11.944 140.709 11.9431L16.4725 11.9423Z" fill="black"/>
<path d="M130.533 1.29541H7.21517C4.42229 1.29541 2.1582 3.56876 2.1582 6.37309V94.6723C2.1582 97.4766 4.42229 99.75 7.21517 99.75H130.533C133.326 99.75 135.59 97.4766 135.59 94.6723V6.37309C135.59 3.56876 133.326 1.29541 130.533 1.29541Z" fill="white"/>
<path d="M130.407 101.045H7.34242C5.62462 101.044 3.97773 100.358 2.76306 99.1394C1.5484 97.9207 0.865177 96.2683 0.863281 94.5448V6.50062C0.865177 4.77713 1.5484 3.12478 2.76306 1.90608C3.97773 0.68739 5.62462 0.00190231 7.34242 0H130.407C132.125 0.00190231 133.772 0.68739 134.986 1.90608C136.201 3.12478 136.884 4.77713 136.886 6.50062V94.5448C136.884 96.2683 136.201 97.9207 134.986 99.1394C133.772 100.358 132.125 101.044 130.407 101.045ZM7.34242 2.8712C6.38425 2.87215 5.46561 3.25445 4.78809 3.93422C4.11056 4.61399 3.72952 5.53568 3.72858 6.49702V94.5448C3.72952 95.5062 4.11056 96.4278 4.78809 97.1076C5.46561 97.7874 6.38425 98.1697 7.34242 98.1707H130.407C131.365 98.1697 132.284 97.7874 132.961 97.1076C133.639 96.4278 134.02 95.5062 134.021 94.5448V6.50062C134.02 5.53928 133.639 4.61759 132.961 3.93782C132.284 3.25805 131.365 2.87575 130.407 2.8748L7.34242 2.8712Z" fill="black"/>
<path d="M7.43415 1.29541H130.657C131.965 1.29541 133.22 1.82822 134.145 2.77663C135.07 3.72504 135.59 5.01135 135.59 6.3526V16.8409H2.1582V6.70365C2.15839 5.26922 2.71435 3.89362 3.70376 2.8794C4.69317 1.86518 6.03501 1.29541 7.43415 1.29541Z" fill="#BBBFC2"/>
<path d="M135.455 18.1364H2.29596C1.91599 18.1364 1.55158 17.9843 1.2829 17.7135C1.01422 17.4427 0.863281 17.0755 0.863281 16.6926V6.74953C0.865177 4.96003 1.57145 3.24435 2.82711 1.97899C4.08278 0.713619 5.78528 0.00191084 7.56105 0H130.531C132.215 0.00191027 133.831 0.67717 135.022 1.87767C136.214 3.07817 136.884 4.70589 136.886 6.40375V16.6919C136.886 17.0747 136.736 17.4419 136.467 17.7127C136.199 17.9836 135.835 18.136 135.455 18.1364ZM3.72864 15.2489H134.022V6.40445C134.021 5.47186 133.653 4.57784 132.998 3.9186C132.343 3.25937 131.456 2.8888 130.531 2.88822H7.56105C6.54498 2.88937 5.57085 3.29662 4.85238 4.02065C4.13391 4.74467 3.72977 5.72631 3.72864 6.75023V15.2489Z" fill="black"/>
<path d="M122.505 24.6138H13.9469C13.1597 24.6138 12.5215 25.2544 12.5215 26.0448V41.3191C12.5215 42.1095 13.1597 42.7501 13.9469 42.7501H122.505C123.292 42.7501 123.931 42.1095 123.931 41.3191V26.0448C123.931 25.2544 123.292 24.6138 122.505 24.6138Z" fill="black"/>
<path opacity="0.2" d="M84.903 50.5227H52.8478C52.0408 50.5227 51.3867 51.1966 51.3867 52.028V60.6765C51.3867 61.5079 52.0408 62.1818 52.8478 62.1818H84.903C85.7099 62.1818 86.364 61.5079 86.364 60.6765V52.028C86.364 51.1966 85.7099 50.5227 84.903 50.5227Z" fill="black"/>
<path opacity="0.2" d="M46.0377 50.5227H13.9825C13.1756 50.5227 12.5215 51.1966 12.5215 52.028V60.6765C12.5215 61.5079 13.1756 62.1818 13.9825 62.1818H46.0377C46.8446 62.1818 47.4988 61.5079 47.4988 60.6765V52.028C47.4988 51.1966 46.8446 50.5227 46.0377 50.5227Z" fill="black"/>
<g opacity="0.2">
<path opacity="0.2" d="M80.7178 71.6378H56.446C56.0651 71.6378 55.6998 71.4865 55.4304 71.2171C55.1611 70.9478 55.0098 70.5825 55.0098 70.2016C55.0098 69.8207 55.1611 69.4554 55.4304 69.186C55.6998 68.9167 56.0651 68.7654 56.446 68.7654H80.7178C81.0987 68.7654 81.464 68.9167 81.7333 69.186C82.0027 69.4554 82.154 69.8207 82.154 70.2016C82.154 70.5825 82.0027 70.9478 81.7333 71.2171C81.464 71.4865 81.0987 71.6378 80.7178 71.6378Z" fill="black"/>
</g>
<g opacity="0.2">
<path opacity="0.2" d="M41.8545 71.6378H17.5827C17.2018 71.6378 16.8365 71.4865 16.5671 71.2171C16.2978 70.9478 16.1465 70.5825 16.1465 70.2016C16.1465 69.8207 16.2978 69.4554 16.5671 69.186C16.8365 68.9167 17.2018 68.7654 17.5827 68.7654H41.8545C42.2354 68.7654 42.6007 68.9167 42.87 69.186C43.1394 69.4554 43.2907 69.8207 43.2907 70.2016C43.2907 70.5825 43.1394 70.9478 42.87 71.2171C42.6007 71.4865 42.2354 71.6378 41.8545 71.6378Z" fill="black"/>
</g>
<g opacity="0.2">
<path opacity="0.2" d="M80.7178 79.7281H56.446C56.0651 79.7281 55.6998 79.5768 55.4304 79.3074C55.1611 79.0381 55.0098 78.6728 55.0098 78.2919C55.0098 77.911 55.1611 77.5457 55.4304 77.2764C55.6998 77.007 56.0651 76.8557 56.446 76.8557H80.7178C81.0987 76.8557 81.464 77.007 81.7333 77.2764C82.0027 77.5457 82.154 77.911 82.154 78.2919C82.154 78.6728 82.0027 79.0381 81.7333 79.3074C81.464 79.5768 81.0987 79.7281 80.7178 79.7281Z" fill="black"/>
</g>
<g opacity="0.2">
<path opacity="0.2" d="M41.8545 79.7281H17.5827C17.2018 79.7281 16.8365 79.5768 16.5671 79.3074C16.2978 79.0381 16.1465 78.6728 16.1465 78.2919C16.1465 77.911 16.2978 77.5457 16.5671 77.2764C16.8365 77.007 17.2018 76.8557 17.5827 76.8557H41.8545C42.2354 76.8557 42.6007 77.007 42.87 77.2764C43.1394 77.5457 43.2907 77.911 43.2907 78.2919C43.2907 78.6728 43.1394 79.0381 42.87 79.3074C42.6007 79.5768 42.2354 79.7281 41.8545 79.7281Z" fill="black"/>
</g>
<g opacity="0.2">
<path opacity="0.2" d="M123.775 50.9871H92.2643C91.4711 50.9871 90.8281 51.6301 90.8281 52.4233V77.8663C90.8281 78.6595 91.4711 79.3025 92.2643 79.3025H123.775C124.568 79.3025 125.211 78.6595 125.211 77.8663V52.4233C125.211 51.6301 124.568 50.9871 123.775 50.9871Z" fill="black"/>
</g>
<g opacity="0.09">
<path opacity="0.09" d="M122.762 87.3936H92.7153C92.4465 87.3986 92.1794 87.3501 91.9296 87.2507C91.6797 87.1513 91.4522 87.0031 91.2603 86.8148C91.0684 86.6265 90.916 86.4019 90.812 86.154C90.7079 85.9061 90.6543 85.6399 90.6543 85.371C90.6543 85.1022 90.7079 84.836 90.812 84.5881C90.916 84.3402 91.0684 84.1155 91.2603 83.9272C91.4522 83.7389 91.6797 83.5907 91.9296 83.4914C92.1794 83.392 92.4465 83.3434 92.7153 83.3485H122.762C123.292 83.3585 123.797 83.576 124.168 83.9542C124.539 84.3324 124.747 84.8411 124.747 85.371C124.747 85.9009 124.539 86.4097 124.168 86.7879C123.797 87.1661 123.292 87.3836 122.762 87.3936Z" fill="black"/>
</g>
<path d="M15.1474 11.7288C16.5976 11.7288 17.7732 10.5532 17.7732 9.10293C17.7732 7.6527 16.5976 6.47705 15.1474 6.47705C13.6971 6.47705 12.5215 7.6527 12.5215 9.10293C12.5215 10.5532 13.6971 11.7288 15.1474 11.7288Z" fill="black"/>
<path d="M23.8231 11.7288C25.2734 11.7288 26.449 10.5532 26.449 9.10293C26.449 7.6527 25.2734 6.47705 23.8231 6.47705C22.3729 6.47705 21.1973 7.6527 21.1973 9.10293C21.1973 10.5532 22.3729 11.7288 23.8231 11.7288Z" fill="black"/>
<path d="M32.5009 11.7288C33.9511 11.7288 35.1267 10.5532 35.1267 9.10293C35.1267 7.6527 33.9511 6.47705 32.5009 6.47705C31.0506 6.47705 29.875 7.6527 29.875 9.10293C29.875 10.5532 31.0506 11.7288 32.5009 11.7288Z" fill="black"/>
</svg>
