<svg width="77" height="78" viewBox="0 0 77 78" fill="none" xmlns="http://www.w3.org/2000/svg">
<path d="M31.7516 44.9351C31.4182 45.2283 31.2404 45.3674 31.0848 45.5253C28.9955 47.6341 26.9062 49.7504 24.8169 51.863C19.9234 56.8136 15.0298 61.7679 10.1325 66.7185C7.01712 69.8686 3.89428 73.0149 0.786258 76.1762C0.423224 76.5446 -0.225052 76.849 0.0787112 77.5444C0.363953 78.1948 1.00112 77.9579 1.49751 77.9579C26.1357 77.9655 50.7702 77.9617 75.4084 77.9579C77.1865 77.9579 76.9939 78.0519 76.9939 76.3904C76.9976 56.464 76.9976 36.5413 76.9976 16.6148C76.9976 11.4011 77.0013 6.18356 76.9791 0.969823C76.9791 0.646548 76.7531 0.323274 76.6346 0C76.3197 0.139083 75.927 0.202986 75.6973 0.432285C72.8709 3.24778 70.0666 6.08207 67.2623 8.92011C64.3766 11.8409 61.4945 14.7654 58.6088 17.6861C55.0044 21.3361 51.4 24.9823 47.7992 28.6361C47.6844 28.7526 47.6103 28.9105 47.4325 29.1736C47.8474 29.1999 48.1104 29.2262 48.3771 29.2262C49.8997 29.2413 51.4222 29.2037 52.941 29.2714C55.6786 29.3916 58.1976 30.1885 60.3425 31.9929C64.5766 35.5564 64.7174 41.7174 60.6277 45.4463C59.9831 46.0327 59.1867 46.4387 58.4828 46.965C58.2235 47.1567 57.8605 47.4536 57.8679 47.6905C57.8753 47.9386 58.2569 48.1942 58.5125 48.4009C58.7051 48.5588 58.9681 48.6264 59.1867 48.7543C64.2469 51.7502 65.1064 58.6028 62.0539 63.1287C60.0239 66.1396 56.9788 67.3425 53.53 67.3914C46.6879 67.4816 39.8421 67.429 32.9963 67.4365C31.8776 67.4365 31.8294 67.3914 31.8294 66.2487C31.8294 59.4674 31.8331 52.6862 31.8294 45.9049C31.822 45.6531 31.785 45.405 31.7516 44.9351ZM45.8063 60.3996V60.3959C47.3028 60.3959 48.7994 60.4109 50.296 60.3884C50.8702 60.3808 51.4481 60.332 52.0112 60.223C54.056 59.8283 55.2933 58.4713 55.5045 56.4377C55.7045 54.5018 54.7414 52.7275 52.9855 52.0509C52.2038 51.7502 51.3333 51.5697 50.4998 51.5547C47.3251 51.4983 44.1467 51.5284 40.9683 51.5284C40.1125 51.5284 39.8903 51.7427 39.8866 52.596C39.8792 54.8401 39.8792 57.0804 39.8903 59.3246C39.894 60.1703 40.1236 60.3959 40.972 60.3959C42.5834 60.4034 44.1948 60.3996 45.8063 60.3996ZM45.8285 44.454C45.8285 44.4464 45.8285 44.4389 45.8285 44.4314C47.4881 44.4314 49.1477 44.4878 50.8035 44.4201C54.0783 44.2848 55.8601 40.9355 54.1301 38.1764C53.2559 36.7818 51.8482 36.327 50.3145 36.3044C47.1621 36.2631 44.0059 36.2781 40.8497 36.2856C40.1162 36.2856 39.894 36.5225 39.8903 37.2555C39.8792 39.3116 39.8829 41.3678 39.894 43.424C39.8977 44.2585 40.0977 44.4464 40.9275 44.4502C42.5612 44.4577 44.1948 44.454 45.8285 44.454Z" fill="#34313F"/>
</svg>
