<svg width="72" height="115" viewBox="0 0 72 115" fill="none" xmlns="http://www.w3.org/2000/svg">
<path d="M3.95148 1.68115H67.507C68.7607 1.68115 69.7769 2.69736 69.7769 3.951V102.215C69.7769 108.232 64.899 113.11 58.8816 113.11H3.95148C2.69785 113.11 1.68164 112.094 1.68164 110.84V3.951C1.68164 2.69736 2.69785 1.68115 3.95148 1.68115Z" fill="white"/>
<path opacity="0.33" d="M4.36414 110.015V4.77654C4.36414 3.06712 5.74987 1.68115 7.45952 1.68115H4.77679C3.06738 1.68138 1.68164 3.06712 1.68164 4.77654V110.015C1.68164 111.724 3.06738 113.11 4.77679 113.11H7.45952C5.74987 113.11 4.36414 111.724 4.36414 110.015Z" fill="white"/>
<path d="M22.1115 89.8955C28.6074 89.8955 33.8733 84.6296 33.8733 78.1337C33.8733 71.6378 28.6074 66.3718 22.1115 66.3718C15.6156 66.3718 10.3496 71.6378 10.3496 78.1337C10.3496 84.6296 15.6156 89.8955 22.1115 89.8955Z" fill="black"/>
<path opacity="0.66" d="M13.4997 71.2452C17.468 66.2856 24.6578 65.3736 29.7388 69.1853C29.6455 69.1059 29.5536 69.0264 29.4573 68.9484C24.3847 64.8906 16.983 65.7134 12.9252 70.786C8.86738 75.8587 9.6902 83.2604 14.7628 87.318C14.8591 87.3949 14.9578 87.4669 15.0556 87.5404C10.2211 83.4204 9.53222 76.2057 13.4997 71.2452Z" fill="black"/>
<path d="M66.6814 1.68116H63.8441C65.5638 1.67708 66.9665 3.05714 66.9908 4.77655V98.2527C66.9665 106.468 60.2975 113.114 52.082 113.11H54.9193C63.1248 113.11 69.7766 106.458 69.7766 98.2527V4.77655C69.7766 3.06713 68.3908 1.68139 66.6814 1.68116Z" fill="black"/>
<path d="M3.95079 114.291H58.8809C65.5401 114.291 70.9571 108.874 70.9571 102.214V3.9508C70.9571 2.04763 69.4095 0.5 67.5063 0.5H3.95079C2.04763 0.5 0.5 2.04763 0.5 3.9508V110.84C0.5 112.743 2.04763 114.291 3.95079 114.291ZM2.8619 3.9508C2.8619 3.35078 3.35078 2.86191 3.95079 2.86191H67.5063C68.1062 2.86191 68.5952 3.35082 68.5952 3.9508V102.214C68.5952 107.57 64.237 111.929 58.8809 111.929H3.95079C3.35082 111.929 2.8619 111.44 2.8619 110.84V3.9508Z" fill="black" stroke="black"/>
<path d="M11.8747 14.3721H59.5827C60.0841 14.3721 60.4906 14.7786 60.4906 15.28V49.7902C60.4906 51.7961 58.8648 53.422 56.8589 53.422H11.8747C11.3733 53.422 10.9668 53.0154 10.9668 52.514V15.28C10.9668 14.7786 11.3733 14.3721 11.8747 14.3721Z" fill="black"/>
<path d="M56.8597 53.8753H11.8756C11.1245 53.8753 10.5137 53.2645 10.5137 52.5134V15.2794C10.5137 14.5283 11.1245 13.9175 11.8756 13.9175H59.5835C60.3346 13.9175 60.9454 14.5283 60.9454 15.2794V49.7896C60.9454 52.0424 59.1126 53.8753 56.8597 53.8753ZM11.8756 14.8254C11.6252 14.8254 11.4216 15.029 11.4216 15.2794V52.5134C11.4216 52.7638 11.6252 52.9674 11.8756 52.9674H56.8597C58.6121 52.9674 60.0375 51.5419 60.0375 49.7896V15.2794C60.0375 15.029 59.8339 14.8254 59.5835 14.8254H11.8756Z" fill="black"/>
<path d="M20.4809 20.6123H50.9794C51.1047 20.6123 51.2064 20.714 51.2064 20.8393V48.8616C51.2064 48.9869 51.1047 49.0886 50.9794 49.0886H20.4809C20.3556 49.0886 20.2539 48.9869 20.2539 48.8616V20.8393C20.2539 20.714 20.3556 20.6123 20.4809 20.6123Z" fill="white"/>
<path d="M50.9783 49.5424H20.4798C20.1043 49.5424 19.7988 49.2369 19.7988 48.8615V20.8392C19.7988 20.4637 20.1043 20.1582 20.4798 20.1582H50.9783C51.3537 20.1582 51.6592 20.4637 51.6592 20.8392V48.8615C51.6592 49.2369 51.3537 49.5424 50.9783 49.5424ZM20.7068 48.6345H50.7513V21.0661H20.7068V48.6345ZM50.9783 21.0661H50.9805H50.9783Z" fill="black"/>
<path d="M69.7777 8.32552H1.68248C1.43189 8.32552 1.22852 8.12214 1.22852 7.87155V4.7764C1.22852 2.81935 2.82058 1.22705 4.77764 1.22705H66.6828C68.6398 1.22705 70.2319 2.81935 70.2319 4.7764V7.87155C70.2317 8.12214 70.0283 8.32552 69.7777 8.32552ZM2.13645 7.41759H69.3237V4.7764C69.3237 3.31985 68.1389 2.13499 66.6826 2.13499H4.77764C3.32131 2.13499 2.13645 3.32007 2.13645 4.7764V7.41759Z" fill="black"/>
<path d="M60.4914 59.7065H42.2294C41.9788 59.7065 41.7754 59.5031 41.7754 59.2526C41.7754 59.002 41.9788 58.7986 42.2294 58.7986H60.4914C60.742 58.7986 60.9453 59.002 60.9453 59.2526C60.9453 59.5031 60.742 59.7065 60.4914 59.7065Z" fill="black"/>
<path d="M29.2296 59.7065H10.9676C10.717 59.7065 10.5137 59.5031 10.5137 59.2526C10.5137 59.002 10.717 58.7986 10.9676 58.7986H29.2296C29.4802 58.7986 29.6836 59.002 29.6836 59.2526C29.6836 59.5031 29.4805 59.7065 29.2296 59.7065Z" fill="black"/>
<path d="M14.7389 75.6055H30.0008C30.5728 75.6055 31.0365 76.0692 31.0365 76.6412V79.6254C31.0365 80.1974 30.5728 80.6611 30.0008 80.6611H14.7389C14.1669 80.6611 13.7031 80.1974 13.7031 79.6254V76.6412C13.7031 76.0692 14.1669 75.6055 14.7389 75.6055Z" fill="white"/>
<path d="M20.8753 69.4668H23.8597C24.4317 69.4668 24.8952 69.9303 24.8952 70.5023V85.7645C24.8952 86.3365 24.4317 86.8 23.8597 86.8H20.8753C20.3033 86.8 19.8398 86.3365 19.8398 85.7645V70.5023C19.8401 69.9305 20.3036 69.467 20.8753 69.4668Z" fill="white"/>
<path d="M23.4834 87.2547H21.3554C20.3265 87.2547 19.4894 86.4176 19.4894 85.3887V81.0939C19.4894 81.0778 19.476 81.0644 19.4596 81.0644H15.1133C14.1126 81.0633 13.2988 80.2486 13.2988 79.2485V77.0175C13.2988 76.0169 14.1128 75.203 15.1133 75.203H19.459C19.4753 75.203 19.4887 75.1896 19.4887 75.1732V70.7754C19.4887 69.8032 20.2795 69.0122 21.2517 69.0122H23.4827C24.5116 69.0122 25.349 69.8493 25.349 70.8785V75.1739C25.349 75.1903 25.3623 75.2037 25.3787 75.2037H29.7259H29.7263C30.7264 75.2037 31.5402 76.0172 31.5404 77.0173V79.1455C31.5404 80.2028 30.6801 81.063 29.6228 81.063H25.3789C25.3626 81.063 25.3494 81.0764 25.3494 81.0928V85.3887C25.3494 86.4176 24.5123 87.2547 23.4834 87.2547ZM15.1133 76.1109C14.6135 76.1109 14.2068 76.5177 14.2068 77.0175V79.2485C14.2068 79.7486 14.6135 80.1558 15.1138 80.1565H19.4596C19.9765 80.1565 20.3971 80.577 20.3973 81.0937V85.3887C20.3973 85.9168 20.8272 86.3468 21.3554 86.3468H23.4834C24.0118 86.3468 24.4417 85.9168 24.4417 85.3887V81.0928C24.4417 80.5759 24.8623 80.1551 25.3792 80.1551H29.6231C30.1799 80.1551 30.6327 79.7022 30.6327 79.1455V77.0175C30.6327 76.7757 30.5383 76.5481 30.3671 76.3769C30.196 76.2058 29.9685 76.1116 29.7266 76.1116H29.7263H29.7257H25.3785C24.8614 76.1111 24.441 75.6905 24.441 75.1739V70.8785C24.441 70.3501 24.0109 69.9201 23.4827 69.9201H21.2517C20.7802 69.9201 20.3966 70.3037 20.3966 70.7754V75.1732C20.3966 75.6901 19.9758 76.1109 19.459 76.1109H15.1133Z" fill="white"/>
<path d="M48.6858 86.7135C46.1218 86.7124 44.044 84.633 44.0449 82.069C44.0454 80.8392 44.5339 79.6598 45.403 78.7897L53.282 70.9109C55.0952 69.0977 58.0349 69.0977 59.848 70.9109C61.6612 72.724 61.6612 75.6637 59.848 77.4769L51.9687 85.3559C51.0996 86.2287 49.9175 86.7176 48.6858 86.7135Z" fill="black"/>
<path opacity="0.66" d="M45.7572 85.3561C43.9468 83.5418 43.9468 80.6044 45.7572 78.7902L53.6365 70.9113C54.4627 70.083 55.5734 69.6007 56.7426 69.5621C56.6835 69.5599 56.6252 69.5535 56.5657 69.5535C55.3339 69.5494 54.1518 70.0383 53.2826 70.9113L45.4036 78.7902C43.5904 80.6019 43.5893 83.5403 45.4011 85.3534C46.2722 86.225 47.4541 86.7146 48.6864 86.7139C48.7459 86.7139 48.8042 86.7074 48.8633 86.7053C47.6941 86.6665 46.5834 86.1842 45.7572 85.3561Z" fill="black"/>
<path d="M56.5659 77.2889C58.2753 77.2889 59.661 75.9032 59.661 74.1938C59.661 72.4844 58.2753 71.0986 56.5659 71.0986C54.8564 71.0986 53.4707 72.4844 53.4707 74.1938C53.4707 75.9032 54.8564 77.2889 56.5659 77.2889Z" fill="white"/>
<path d="M48.687 85.1681C50.3964 85.1681 51.7821 83.7823 51.7821 82.0729C51.7821 80.3635 50.3964 78.9778 48.687 78.9778C46.9776 78.9778 45.5918 80.3635 45.5918 82.0729C45.5918 83.7823 46.9776 85.1681 48.687 85.1681Z" fill="white"/>
<path d="M56.5667 77.743C54.6099 77.743 53.0176 76.1507 53.0176 74.1939C53.0176 72.2371 54.6099 70.6448 56.5667 70.6448C58.5235 70.6448 60.1158 72.2371 60.1158 74.1939C60.1158 76.1507 58.5235 77.743 56.5667 77.743ZM56.5667 71.5527C55.1104 71.5527 53.9255 72.7376 53.9255 74.1939C53.9255 75.6502 55.1104 76.8351 56.5667 76.8351C58.023 76.8351 59.2079 75.6502 59.2079 74.1939C59.2079 72.7376 58.023 71.5527 56.5667 71.5527Z" fill="black"/>
<path d="M48.6859 85.6219C46.729 85.6219 45.1367 84.0296 45.1367 82.0728C45.1367 80.116 46.729 78.5237 48.6859 78.5237C50.6427 78.5237 52.235 80.116 52.235 82.0728C52.235 84.0296 50.6427 85.6219 48.6859 85.6219ZM48.6859 79.4318C47.2295 79.4318 46.0447 80.6167 46.0447 82.073C46.0447 83.5294 47.2295 84.7142 48.6859 84.7142C50.1422 84.7142 51.327 83.5294 51.327 82.073C51.327 80.6167 50.1422 79.4318 48.6859 79.4318Z" fill="black"/>
<path d="M29.8505 99.637C29.56 99.637 29.2692 99.5265 29.0482 99.3051L28.5706 98.8276C28.3563 98.6135 28.2383 98.3284 28.2383 98.0252C28.2383 97.7222 28.3563 97.4371 28.5706 97.2228L33.369 92.4246C33.5833 92.2103 33.8684 92.092 34.1714 92.092C34.4744 92.092 34.7595 92.2103 34.9738 92.4246L35.4512 92.9019C35.6657 93.1162 35.7837 93.4013 35.7837 93.7043C35.7837 94.0076 35.6654 94.2927 35.4512 94.5069L30.6532 99.3051C30.4319 99.5262 30.1411 99.637 29.8505 99.637ZM34.1714 93C34.1362 93 34.0688 93.0086 34.0109 93.0665L29.2125 97.8647C29.1548 97.9226 29.1462 97.9902 29.1462 98.0252C29.1462 98.0604 29.1548 98.1278 29.2125 98.1857L29.6901 98.6632C29.7784 98.7515 29.9225 98.7518 30.0113 98.663L34.8092 93.8648C34.8671 93.8069 34.8758 93.7395 34.8758 93.7043C34.8758 93.6694 34.8671 93.6017 34.8092 93.5438L34.3319 93.0665C34.274 93.0086 34.2066 93 34.1714 93Z" fill="black"/>
<path d="M37.6162 99.6374C37.3131 99.6374 37.0281 99.5191 36.8138 99.3048L36.3364 98.8275C36.1222 98.6132 36.0039 98.3281 36.0039 98.0251C36.0039 97.7219 36.1222 97.4368 36.3364 97.2225L41.1346 92.4243C41.577 91.9819 42.2968 91.9821 42.7397 92.424C42.7397 92.4243 42.7397 92.4243 42.7397 92.4243L43.217 92.9018C43.4313 93.1159 43.5495 93.401 43.5495 93.7042C43.5495 94.0073 43.4313 94.2923 43.217 94.5066L38.4188 99.3048C38.2045 99.5191 37.9194 99.6374 37.6162 99.6374ZM41.9375 92.9999C41.8792 92.9999 41.8208 93.0221 41.7768 93.0664L36.9786 97.8646C36.9207 97.9225 36.9121 97.9899 36.9121 98.0251C36.9121 98.0601 36.9207 98.1277 36.9786 98.1856L37.4559 98.6629C37.5444 98.7517 37.6881 98.7519 37.7771 98.6629L42.5753 93.8647C42.6332 93.8068 42.6418 93.7392 42.6418 93.7042C42.6418 93.6691 42.6332 93.6016 42.5753 93.544L42.098 93.0664C42.0537 93.0221 41.9954 92.9999 41.9375 92.9999Z" fill="black"/>
<path d="M56.8941 105.013C56.7198 105.013 56.5457 104.947 56.4127 104.814L52.6917 101.093C52.4257 100.827 52.4257 100.396 52.6917 100.13C52.9577 99.8639 53.3885 99.8639 53.6546 100.13L57.3755 103.851C57.6416 104.117 57.6416 104.548 57.3755 104.814C57.2425 104.947 57.0684 105.013 56.8941 105.013Z" fill="black"/>
<path d="M54.4876 107.421C54.3133 107.421 54.1392 107.354 54.0062 107.221L50.2855 103.5C50.0194 103.234 50.0194 102.803 50.2855 102.537C50.5515 102.271 50.9823 102.271 51.2483 102.537L54.969 106.258C55.2351 106.524 55.2351 106.955 54.969 107.221C54.836 107.354 54.6617 107.421 54.4876 107.421Z" fill="black"/>
<path d="M59.5211 102.387C59.3467 102.387 59.1726 102.32 59.0396 102.187L55.3187 98.4663C55.0526 98.2005 55.0526 97.7695 55.3187 97.5035C55.5847 97.2374 56.0155 97.2374 56.2815 97.5035L60.0025 101.224C60.2685 101.49 60.2685 101.921 60.0025 102.187C59.8697 102.32 59.6954 102.387 59.5211 102.387Z" fill="black"/>
<path d="M61.929 99.9793C61.7547 99.9793 61.5806 99.9128 61.4476 99.7798L57.7269 96.0589C57.4608 95.7928 57.4608 95.3618 57.7269 95.096C57.9929 94.83 58.4237 94.83 58.6897 95.096L62.4104 98.817C62.6765 99.083 62.6765 99.514 62.4104 99.7798C62.2774 99.9128 62.1031 99.9793 61.929 99.9793Z" fill="black"/>
<path d="M64.3355 97.5714C64.1612 97.5714 63.9871 97.5049 63.8541 97.3719L60.1331 93.6512C59.8671 93.3854 59.8671 92.9543 60.1331 92.6883C60.3991 92.4223 60.83 92.4223 61.096 92.6883L64.8169 96.409C65.083 96.6748 65.083 97.1059 64.8169 97.3719C64.6839 97.5049 64.5098 97.5714 64.3355 97.5714Z" fill="black"/>
<path d="M62.8136 8.32552H8.80162C8.55103 8.32552 8.34766 8.12214 8.34766 7.87155V1.68102C8.34766 1.43043 8.55103 1.22705 8.80162 1.22705H62.8136C63.0642 1.22705 63.2676 1.43043 63.2676 1.68102V7.87155C63.2676 8.12214 63.0644 8.32552 62.8136 8.32552ZM9.25559 7.41759H62.3596V2.13499H9.25559V7.41759Z" fill="black"/>
<path d="M37.7927 18.2302H15.6102C15.3596 18.2302 15.1562 18.0268 15.1562 17.7762C15.1562 17.5256 15.3596 17.3223 15.6102 17.3223H37.7927C38.0433 17.3223 38.2467 17.5256 38.2467 17.7762C38.2467 18.0268 38.0433 18.2302 37.7927 18.2302Z" fill="white"/>
<path d="M56.7777 18.2302H49.659C49.4085 18.2302 49.2051 18.0268 49.2051 17.7762C49.2051 17.5256 49.4085 17.3223 49.659 17.3223H56.7777C57.0283 17.3223 57.2317 17.5256 57.2317 17.7762C57.2317 18.0268 57.0283 18.2302 56.7777 18.2302Z" fill="white"/>
<path d="M32.3758 60.5192C32.1253 60.5192 31.9219 60.3159 31.9219 60.0653V58.4403C31.9219 58.1897 32.1253 57.9863 32.3758 57.9863C32.6264 57.9863 32.8298 58.1897 32.8298 58.4403V60.0653C32.8298 60.3159 32.6267 60.5192 32.3758 60.5192Z" fill="black"/>
<path d="M34.6102 60.5192C34.3596 60.5192 34.1562 60.3159 34.1562 60.0653V58.4403C34.1562 58.1897 34.3596 57.9863 34.6102 57.9863C34.8608 57.9863 35.0642 58.1897 35.0642 58.4403V60.0653C35.0642 60.3159 34.861 60.5192 34.6102 60.5192Z" fill="black"/>
<path d="M36.8465 60.5192C36.596 60.5192 36.3926 60.3159 36.3926 60.0653V58.4403C36.3926 58.1897 36.596 57.9863 36.8465 57.9863C37.0971 57.9863 37.3005 58.1897 37.3005 58.4403V60.0653C37.3005 60.3159 37.0971 60.5192 36.8465 60.5192Z" fill="black"/>
<path d="M39.0829 60.5192C38.8323 60.5192 38.6289 60.3159 38.6289 60.0653V58.4403C38.6289 58.1897 38.8323 57.9863 39.0829 57.9863C39.3335 57.9863 39.5368 58.1897 39.5368 58.4403V60.0653C39.5368 60.3159 39.3337 60.5192 39.0829 60.5192Z" fill="black"/>
</svg>
