<svg width="88" height="98" viewBox="0 0 88 98" fill="none" xmlns="http://www.w3.org/2000/svg">
<path d="M76.6203 19.0318C76.5523 18.5406 76.1199 18.2687 75.7625 18.2388C75.4057 18.2091 67.856 17.6523 67.856 17.6523C67.856 17.6523 62.6126 12.4721 62.0371 11.8987C61.4613 11.3257 60.3367 11.5 59.9001 11.6279C59.8359 11.6467 58.7545 11.9788 56.9658 12.5296C55.2143 7.51401 52.1231 2.90486 46.685 2.90486C46.5349 2.90486 46.3803 2.91092 46.2258 2.91967C44.6792 0.884279 42.7634 0 41.1086 0C28.4405 0 22.3883 15.7592 20.4908 23.7675C15.5683 25.2854 12.0713 26.3645 11.6247 26.5041C8.87702 27.3618 8.79012 27.448 8.42934 30.0244C8.15782 31.975 0.968506 87.3027 0.968506 87.3027L56.9892 97.7478L87.3431 91.2133C87.3431 91.2133 76.6876 19.5231 76.6206 19.0318H76.6203ZM53.8696 13.4826L49.1293 14.9426C49.131 14.6101 49.1327 14.2831 49.1327 13.9254C49.1327 10.8082 48.6979 8.29836 48.0003 6.30873C50.8024 6.65867 52.6685 9.83137 53.8696 13.4826ZM44.5244 6.92685C45.3034 8.86937 45.8099 11.6571 45.8099 15.419C45.8099 15.6115 45.8082 15.7875 45.8065 15.9655C42.7238 16.9157 39.374 17.9474 36.0167 18.9824C37.9017 11.7426 41.4352 8.24586 44.5244 6.92685ZM40.7606 3.38132C41.3074 3.38132 41.8582 3.56605 42.3853 3.9271C38.3254 5.82823 33.9737 10.6164 32.136 20.1782L24.3975 22.5632C26.5501 15.27 31.6612 3.38132 40.7603 3.38132H40.7606Z" fill="#95BF46"/>
<path d="M75.7608 18.2384C75.4041 18.2088 67.8543 17.6519 67.8543 17.6519C67.8543 17.6519 62.611 12.4718 62.0355 11.8984C61.8201 11.6851 61.5296 11.5757 61.226 11.5286L56.9902 97.7468L87.3414 91.2129C87.3414 91.2129 76.6856 19.5228 76.6187 19.0315C76.5507 18.5402 76.1182 18.2684 75.7608 18.2384Z" fill="#5E8E3E"/>
<path d="M46.6846 36.3225L42.9418 47.4015C42.9418 47.4015 39.6627 45.6599 35.643 45.6599C29.75 45.6599 29.4535 49.34 29.4535 50.2673C29.4535 55.3274 42.7082 57.2662 42.7082 69.1185C42.7082 78.4435 36.7649 84.448 28.7512 84.448C19.1348 84.448 14.217 78.4922 14.217 78.4922L16.7919 70.0263C16.7919 70.0263 21.8469 74.3451 26.1124 74.3451C28.8996 74.3451 30.0334 72.1613 30.0334 70.5657C30.0334 63.9652 19.1591 63.6708 19.1591 52.825C19.1591 43.6965 25.7432 34.8628 39.0337 34.8628C44.1547 34.8628 46.6846 36.3225 46.6846 36.3225Z" fill="white"/>
</svg>
